<?xml version="1.0" encoding="utf-8"?>
<!-- Generator: Adobe Illustrator 21.0.0, SVG Export Plug-In . SVG Version: 6.00 Build 0)  -->
<svg version="1.1" id="Ebene_1" xmlns="http://www.w3.org/2000/svg" xmlns:xlink="http://www.w3.org/1999/xlink" x="0px" y="0px"
	 viewBox="0 0 1000 1000" style="enable-background:new 0 0 1000 1000;" xml:space="preserve">
<style type="text/css">
	.st0{fill:#FFFFFF;}
</style>
<path class="st0" d="M500,10C229.4,10,10,229.4,10,500c0,270.7,219.4,490,490,490c270.7,0,490-219.3,490-490
	C990,229.4,770.7,10,500,10z M604.5,688.9c12.7,12.7,12.7,33.5,0,46.2s-33.5,12.7-46.2,0L346.5,523.2c-6.4-6.4-9.5-14.8-9.5-23.2
	s3.1-16.8,9.5-23.2l211.9-211.9c12.7-12.7,33.5-12.7,46.2,0c12.7,12.7,12.7,33.5,0,46.2L415.7,500L604.5,688.9z"/>
</svg>
