<svg width="83" height="83" viewBox="0 0 83 83" xmlns="http://www.w3.org/2000/svg">
    <g fill="none" fill-rule="evenodd">
        <circle stroke="#7D1125" fill="#6A0D24" cx="41.5" cy="41.5" r="41"/>
        <path d="M35.234 37.938V35.92H30.55a27.761 27.761 0 0 0 1.718-1.347c.493-.422.914-.826 1.264-1.211.35-.385.634-.76.854-1.127.22-.366.38-.73.483-1.088.102-.36.154-.726.154-1.1 0-.746-.181-1.411-.543-1.994a3.85 3.85 0 0 0-1.494-1.383c-.635-.338-1.36-.508-2.177-.508-.537 0-1.036.08-1.498.238a4.098 4.098 0 0 0-1.25.686c-.37.3-.688.66-.952 1.082a5.182 5.182 0 0 0-.605 1.424l1.904.89c.144-.495.326-.913.546-1.253.22-.341.475-.599.766-.774.292-.175.61-.262.956-.262.36 0 .682.086.97.259a1.915 1.915 0 0 1 .934 1.666c0 .284-.07.586-.207.906-.137.32-.356.67-.654 1.05-.299.38-.689.801-1.17 1.264-.48.462-1.06.976-1.742 1.543a74.147 74.147 0 0 1-2.387 1.894v1.161h8.813zm6.405.223c.942 0 1.77-.252 2.481-.755.712-.505 1.267-1.207 1.666-2.108.4-.9.599-1.943.599-3.129 0-1.19-.2-2.234-.599-3.132-.399-.898-.954-1.6-1.666-2.104-.711-.503-1.539-.756-2.481-.756-.943 0-1.771.253-2.485.756-.714.505-1.27 1.206-1.67 2.104-.399.898-.598 1.943-.598 3.133 0 1.185.2 2.228.598 3.128.4.901.956 1.603 1.67 2.108.714.504 1.542.755 2.485.755zm0-1.995a1.8 1.8 0 0 1-1.257-.482c-.352-.322-.624-.783-.815-1.383-.192-.6-.287-1.31-.287-2.132 0-.825.095-1.537.287-2.134.191-.598.463-1.058.815-1.38a1.8 1.8 0 0 1 1.257-.483c.485 0 .903.162 1.253.483.35.322.62.782.812 1.38.191.597.287 1.308.287 2.134 0 .822-.096 1.532-.287 2.132-.192.6-.462 1.06-.812 1.383-.35.322-.768.483-1.253.483zm13.783 1.995c.723 0 1.42-.096 2.09-.29.669-.194 1.23-.46 1.683-.802l-.973-1.931a3.81 3.81 0 0 1-1.141.58c-.434.14-.875.21-1.323.21a4.61 4.61 0 0 1-1.467-.227 3.801 3.801 0 0 1-1.21-.658 3.62 3.62 0 0 1-.865-1.018h4.718v-1.323h-5.23a2.59 2.59 0 0 1-.041-.791c.01-.09.023-.176.042-.26h5.229v-1.323h-4.711c.233-.396.526-.738.878-1.025a3.928 3.928 0 0 1 1.204-.665c.45-.156.935-.235 1.453-.235.448 0 .888.07 1.32.21.43.14.812.337 1.144.588l.973-1.931c-.458-.346-1.021-.614-1.69-.805a7.543 7.543 0 0 0-2.083-.288c-.658 0-1.295.102-1.911.305a6.446 6.446 0 0 0-3.084 2.17 5.749 5.749 0 0 0-.906 1.676h-1.31v1.323h1.016c-.01.08-.019.165-.028.256a2.575 2.575 0 0 0 0 .536c.01.098.018.184.028.259h-1.015v1.323h1.309c.284.812.724 1.529 1.32 2.152a6.463 6.463 0 0 0 2.078 1.46c.791.35 1.625.524 2.503.524zm-35.725 14c.658 0 1.222-.095 1.69-.287.47-.19.83-.467 1.079-.829.25-.362.374-.802.374-1.32 0-.424-.08-.764-.238-1.018a1.817 1.817 0 0 0-.654-.62 6.193 6.193 0 0 0-.956-.434c-.22-.079-.449-.166-.69-.262a2.66 2.66 0 0 1-.608-.329c-.166-.124-.249-.27-.249-.438 0-.177.08-.324.238-.44.159-.117.371-.175.637-.175.476 0 1.015.193 1.617.58l.735-1.378a7.089 7.089 0 0 0-1.25-.49 4.204 4.204 0 0 0-1.116-.161c-.57 0-1.072.095-1.508.286-.437.192-.778.457-1.026.795-.247.338-.37.73-.37 1.172 0 .364.082.665.248.904.165.238.381.434.647.587.266.154.544.292.833.413.34.14.619.256.833.347.215.091.375.19.48.297.105.108.157.255.157.442a.728.728 0 0 1-.115.416.741.741 0 0 1-.315.262 1.13 1.13 0 0 1-.473.091c-.326 0-.653-.084-.98-.252a3.496 3.496 0 0 1-.938-.727l-.903 1.441c.318.37.715.65 1.194.84.478.192 1.02.287 1.627.287zm7.287 3.416v-4.584a3.3 3.3 0 0 0 1.127.864c.434.203.896.304 1.386.304.672 0 1.275-.166 1.81-.5a3.546 3.546 0 0 0 1.263-1.365c.308-.576.462-1.224.462-1.943 0-.727-.155-1.379-.465-1.953a3.535 3.535 0 0 0-1.274-1.358c-.54-.33-1.154-.497-1.845-.497-.494 0-.956.096-1.386.288-.43.19-.788.462-1.078.812v-.876h-2.149v10.809h2.15zm1.876-5.242c-.368 0-.7-.086-.994-.256a1.816 1.816 0 0 1-.69-.703 2.057 2.057 0 0 1-.248-1.015c0-.388.084-.73.252-1.026a1.882 1.882 0 0 1 1.68-.962c.369 0 .696.086.98.259a1.9 1.9 0 0 1 .68.707c.167.298.251.639.251 1.022 0 .382-.081.722-.245 1.018a1.82 1.82 0 0 1-.675.7c-.287.17-.617.255-.99.255zm9.142 1.826c.495 0 .955-.1 1.38-.3.424-.201.8-.49 1.126-.868v.944h2.15V44.77h-2.15v.874a2.83 2.83 0 0 0-1.081-.808 3.503 3.503 0 0 0-1.425-.29c-.69 0-1.303.166-1.837.5a3.507 3.507 0 0 0-1.257 1.358c-.303.572-.455 1.217-.455 1.935 0 .738.158 1.395.473 1.971a3.554 3.554 0 0 0 1.28 1.358 3.379 3.379 0 0 0 1.796.493zm.637-1.827c-.373 0-.704-.085-.994-.255a1.831 1.831 0 0 1-.682-.703 2.071 2.071 0 0 1-.249-1.023c0-.382.084-.723.252-1.022a1.857 1.857 0 0 1 1.673-.959c.374 0 .704.086.99.256.288.17.514.404.68.7.165.296.248.638.248 1.025 0 .383-.081.724-.245 1.023-.163.298-.39.533-.679.703-.29.17-.62.255-.994.255zm8.694 1.603v-4.003c0-.267.077-.515.231-.746a1.79 1.79 0 0 1 .61-.564c.251-.144.517-.217.797-.217.182 0 .38.032.592.095.212.063.398.148.556.255l.896-1.813a2.477 2.477 0 0 0-.679-.287 2.944 2.944 0 0 0-.784-.111 2.49 2.49 0 0 0-1.242.325c-.385.217-.71.526-.977.927V44.77h-2.149v7.169h2.15zm8.316.224c.756 0 1.442-.163 2.058-.49a3.517 3.517 0 0 0 1.428-1.358l-1.547-.777c-.266.318-.542.549-.83.694a2.172 2.172 0 0 1-.99.217c-.396 0-.744-.076-1.043-.228a1.697 1.697 0 0 1-.696-.633 1.787 1.787 0 0 1-.249-.953h5.495c.014-.12.022-.204.025-.248.002-.044.003-.097.003-.157 0-.733-.157-1.375-.472-1.925a3.352 3.352 0 0 0-1.316-1.292c-.563-.31-1.217-.466-1.964-.466-.56 0-1.08.097-1.56.291-.481.194-.904.464-1.268.812a3.748 3.748 0 0 0-.85 1.214 3.665 3.665 0 0 0-.305 1.491c0 .724.18 1.372.54 1.947.359.574.845 1.027 1.459 1.361.613.334 1.308.5 2.082.5zm1.54-4.718h-3.332a1.5 1.5 0 0 1 .266-.713c.145-.201.336-.355.574-.462.238-.108.514-.162.826-.162.294 0 .558.054.791.161.234.108.426.262.578.462.151.201.25.44.297.715zm6.21 4.495v-4.242c0-.28.061-.531.185-.753a1.34 1.34 0 0 1 .532-.525c.23-.128.505-.193.822-.193.467 0 .834.144 1.103.431.268.287.402.687.402 1.2v4.081h2.15v-4.535c0-.57-.12-1.068-.358-1.495a2.583 2.583 0 0 0-.983-1.001c-.418-.24-.902-.36-1.453-.36-.5 0-.955.093-1.368.28a3.044 3.044 0 0 0-1.033.742v-.798H61.25v7.167h2.15z" fill="#FFF" fill-rule="nonzero"/>
    </g>
</svg>
