<svg id="Ebene_1" data-name="Ebene 1" xmlns="http://www.w3.org/2000/svg" viewBox="0 0 283.04 195.59"><path d="M262.55,164.59c-6.85,0-11.71-5.52-11.71-12.15v-.11c0-6.62,4.75-12,11.6-12s11.71,5.53,11.71,12.15v.11c0,6.63-4.75,12-11.6,12m-.11,7.84c11.93,0,20.6-9,20.6-20v-.11c0-11-8.56-19.88-20.49-19.88s-20.6,9-20.6,20v.11c0,11,8.56,19.88,20.49,19.88m-55.25-.66h8.51V160l4.47-4.64,12,16.46h10.22l-16.46-22.26,15.74-16.4H231.38L215.7,150v-16.9h-8.51Zm-21.31.55c8.33,0,14.19-4.3,14.19-12v-.11c0-6.74-4.42-9.55-12.26-11.6-6.68-1.71-8.34-2.54-8.34-5.08v-.11c0-1.88,1.71-3.37,5-3.37s6.63,1.44,10.05,3.81l4.42-6.4a22.38,22.38,0,0,0-14.36-4.92c-7.9,0-13.53,4.64-13.53,11.65v.11c0,7.68,5,9.83,12.81,11.82,6.46,1.66,7.79,2.76,7.79,4.92v.11c0,2.26-2.1,3.64-5.58,3.64-4.42,0-8.06-1.82-11.54-4.69l-5,6a24.57,24.57,0,0,0,16.4,6.18m-51-.55h29.43V164.2h-21v-8.11h18.22v-7.57H143.3v-7.84H164v-7.57H134.85Zm-49.26.28H93l8.73-25.3,8.72,25.3h7.4L131,133.11h-8.89l-8,26.18L105.47,133H98.18l-8.67,26.29-8-26.18H72.4ZM51.41,155.59l5.14-12.54,5.13,12.54ZM36.17,171.77h8.67l3.53-8.67H64.72l3.53,8.67h8.9L60.58,132.84H52.74ZM0,171.77H8.5V156.25H24.19v15.52h8.5V133.11h-8.5v15.3H8.5v-15.3H0Z" fill="#fff"/><path d="M276.1,187.32c1.26,0,1.3,0,1.3,1.25v5.23c0,.89-.14,1-1.3,1v.45c1.06-.09,1.61-.11,2.28-.11s1.2,0,2.27.11v-.45c-1.16,0-1.3-.16-1.3-1v-4a3.93,3.93,0,0,1,.23-1.54,1.44,1.44,0,0,1,1.2-.94.45.45,0,0,1,.5.44,2.83,2.83,0,0,1,0,.4,1.57,1.57,0,0,0,0,.25c0,.38.34.63.83.63a.82.82,0,0,0,.87-.92,1.61,1.61,0,0,0-1.68-1.63,2.46,2.46,0,0,0-2.18,1.61,8.77,8.77,0,0,0-.24-1.61,12.05,12.05,0,0,1-2.69.44Zm-4.54-.34c1.22,0,1.76,1.26,1.76,4.08,0,2.65-.58,3.92-1.77,3.92s-1.77-1.27-1.77-4,.61-4,1.78-4m0-.49c-2.22,0-3.84,1.92-3.84,4.52s1.58,4.45,3.77,4.45,3.79-1.93,3.79-4.45c0-2.69-1.5-4.52-3.72-4.52m-4.47,7.62a1.93,1.93,0,0,1-1.21.49c-.74,0-1-.47-1-1.88l0-5.31h1.94v-.68H265l0-2.64h-.6c-.36,1.72-1.24,2.69-2.49,2.69v.63H263l-.1,5.17v.21a3.1,3.1,0,0,0,.34,1.72,2.11,2.11,0,0,0,1.89.9,3.27,3.27,0,0,0,2-.65ZM252,187.41c1.26,0,1.3.06,1.3,1.23v5.16c0,.89-.15,1-1.3,1v.45a19.32,19.32,0,0,1,2.13-.11,18.2,18.2,0,0,1,2.11.11v-.43c-.81,0-1-.22-1-1v-4.45a2,2,0,0,1,.3-1.31,1.55,1.55,0,0,1,1.34-.67,1.35,1.35,0,0,1,1.21.61,2.53,2.53,0,0,1,.23,1.32v4.5c0,.77-.18,1-1,1v.43a18,18,0,0,1,2.09-.11,19.31,19.31,0,0,1,2.15.11v-.45c-1.15,0-1.3-.16-1.3-1v-4.22c0-2-.94-3-2.7-3A2.88,2.88,0,0,0,255,188a5.56,5.56,0,0,0-.27-1.54A15,15,0,0,1,252,187Zm-4.54-.43c1.21,0,1.75,1.26,1.75,4.08,0,2.65-.58,3.92-1.77,3.92s-1.77-1.27-1.77-4,.62-4,1.79-4m0-.49c-2.22,0-3.85,1.92-3.85,4.52s1.59,4.45,3.78,4.45,3.79-1.93,3.79-4.45c0-2.69-1.5-4.52-3.72-4.52m-12.19,2.62V185c0-1,.18-1.2,1.5-1.25v-.58a24.41,24.41,0,0,1-2.44.13c-.81,0-1.43,0-2.56-.13v.58c1.31.05,1.51.22,1.51,1.25v8.5c0,1-.18,1.19-1.51,1.24v.58c1.06-.09,1.64-.12,2.56-.12a20.43,20.43,0,0,1,2.35.12v-.58c-1.23-.09-1.43-.25-1.43-1.24v-3.54l.94-1,2.74,4.65c.26.42.27.45.27.62,0,.34-.19.41-1.19.48v.58a23,23,0,0,1,2.6-.14,22.3,22.3,0,0,1,2.58.14v-.58c-1,0-1.39-.28-2-1.3l-3.68-5.81,2.66-2.87a2.76,2.76,0,0,1,2.2-1v-.58c-.85.06-1.32.07-1.93.07s-1.11,0-2-.07v.58c.94.05,1.13.13,1.13.41s-.07.29-.29.53Zm-8.74,5a2,2,0,0,1-1.21.49c-.74,0-1-.47-1-1.88l0-5.31h1.93v-.68h-1.93l0-2.64h-.6c-.36,1.72-1.24,2.69-2.49,2.69v.63h1.1l-.11,5.17v.21a3.09,3.09,0,0,0,.35,1.72,2.11,2.11,0,0,0,1.89.9,3.27,3.27,0,0,0,2-.65ZM214.33,191v-8.1a18.44,18.44,0,0,1-3.2.58v.41c1.17,0,1.28.11,1.28,1.21v8.68c0,.89-.14,1-1.3,1v.45a22,22,0,0,1,2.22-.11,22.45,22.45,0,0,1,2.26.11v-.45c-1.16,0-1.3-.16-1.3-1v-1.71l1.16-1.23,2.45,4.44c.61,0,.94-.05,1.35-.05s.76,0,1.47.05v-.45c-.83,0-1.1-.23-1.66-1.15l-2.4-4,1.51-1.66a2.49,2.49,0,0,1,2-1v-.45c-.94.08-1.46.09-2.09.09a16,16,0,0,1-1.88-.09v.45c.79.06,1.07.17,1.07.46a1.27,1.27,0,0,1-.4.68Zm-9.17-.77c.09-2.17.67-3.27,1.68-3.27s1.48,1,1.57,3.27Zm4.51,2.27c-.23,1.45-1,2.28-2.27,2.28a2,2,0,0,1-2-1.54,7.79,7.79,0,0,1-.25-2.36h5.24a8.12,8.12,0,0,0-.38-2.33,3.21,3.21,0,0,0-3.13-2.08c-2.25,0-3.73,1.79-3.73,4.5s1.5,4.47,3.88,4.47a3.17,3.17,0,0,0,3.36-2.94Zm-15.83-1.1v4.17h.36l.71-1.28a4.57,4.57,0,0,0,3.08,1.12,3.49,3.49,0,0,0,3.74-3.56A3.09,3.09,0,0,0,200,189c-.43-.27-1.17-.69-2.36-1.32-1.5-.79-1.84-1.17-1.84-2a2,2,0,0,1,2.15-2c1.42,0,2.33.94,2.69,2.83h.54v-3.57h-.36l-.58,1.1a3.36,3.36,0,0,0-2.55-1c-2.18,0-3.68,1.28-3.68,3.15a2.89,2.89,0,0,0,.85,2.12,10.77,10.77,0,0,0,2.47,1.57,9.91,9.91,0,0,1,1.7,1,2.13,2.13,0,0,1,.88,1.71,2.23,2.23,0,0,1-2.38,2.17,3,3,0,0,1-2.51-1.37,4.8,4.8,0,0,1-.67-2ZM183,187.2c1.24,0,1.82,1.28,1.82,4s-.58,3.9-1.77,3.9-1.78-1.32-1.78-4,.54-3.86,1.73-3.86m5.11,7.33c-1.21,0-1.36-.15-1.36-1.2V182.92a16,16,0,0,1-3.23.58v.41c1.17,0,1.28.11,1.28,1.21v2.64a2.3,2.3,0,0,0-2.05-1.07c-2,0-3.49,1.86-3.49,4.42s1.52,4.46,3.61,4.46a2.31,2.31,0,0,0,2.19-1.33,5.71,5.71,0,0,0,.09.61c0,.13,0,.18.18.65a11.29,11.29,0,0,1,2.78-.56ZM169,187.41c1.27,0,1.3.06,1.3,1.23v5.16c0,.89-.14,1-1.3,1v.45a19.44,19.44,0,0,1,2.13-.11,18.36,18.36,0,0,1,2.12.11v-.43c-.82,0-1-.22-1-1v-4.45a1.94,1.94,0,0,1,.31-1.31,1.55,1.55,0,0,1,1.34-.67,1.35,1.35,0,0,1,1.21.61,2.53,2.53,0,0,1,.23,1.32v4.5c0,.77-.18,1-1,1v.43a17.88,17.88,0,0,1,2.09-.11,19.31,19.31,0,0,1,2.15.11v-.45c-1.16,0-1.3-.16-1.3-1v-4.22c0-2-.94-3-2.71-3A2.87,2.87,0,0,0,172,188a6,6,0,0,0-.27-1.54A14.94,14.94,0,0,1,169,187Zm-10.64,0c1.17,0,1.28.11,1.28,1.19v3.84a3,3,0,0,0,.49,2,2.66,2.66,0,0,0,2.25,1,2.63,2.63,0,0,0,2.55-1.53,12.27,12.27,0,0,0,.18,1.64,12.19,12.19,0,0,1,2.83-.56v-.43l-.21,0c-1,0-1.12-.13-1.12-.87V186.4a17.32,17.32,0,0,1-3.23.56v.42c1.17,0,1.28.11,1.28,1.19v3.82c0,1.41-.54,2.12-1.65,2.12a1.31,1.31,0,0,1-1.15-.56,2.47,2.47,0,0,1-.27-1.43V186.4a17,17,0,0,1-3.23.56Zm-14.72,0c1.27,0,1.3.06,1.3,1.23v5.16c0,.89-.14,1-1.3,1v.45a19.44,19.44,0,0,1,2.13-.11,18.36,18.36,0,0,1,2.12.11v-.43c-.82,0-1-.22-1-1v-4.45a1.89,1.89,0,0,1,.31-1.31,1.54,1.54,0,0,1,1.33-.67,1.33,1.33,0,0,1,1.21.61,2.41,2.41,0,0,1,.24,1.32v4.5c0,.77-.18,1-1,1v.43a17.88,17.88,0,0,1,2.09-.11,19.31,19.31,0,0,1,2.15.11v-.45c-1.16,0-1.3-.16-1.3-1v-4.22c0-2-.94-3-2.71-3a2.87,2.87,0,0,0-2.58,1.46,6,6,0,0,0-.27-1.54,15.12,15.12,0,0,1-2.73.53Zm-3.41-4.47a1.16,1.16,0,0,0-1.13,1.22,1.19,1.19,0,0,0,1.13,1.25,1.17,1.17,0,0,0,1.16-1.25,1.18,1.18,0,0,0-1.16-1.22m1.07,3.46a19.3,19.3,0,0,1-3.23.56v.42c1.17,0,1.28.12,1.28,1.19v5.23c0,.89-.15,1-1.3,1v.45c1.08-.09,1.62-.11,2.27-.11s1.2,0,2.28.11v-.45c-1.16,0-1.3-.16-1.3-1ZM132,190.25c.09-2.17.67-3.27,1.68-3.27s1.48,1,1.57,3.27Zm4.51,2.27c-.23,1.45-1,2.28-2.27,2.28a1.93,1.93,0,0,1-2-1.54,7.42,7.42,0,0,1-.26-2.36h5.24a7.79,7.79,0,0,0-.38-2.33,3.2,3.2,0,0,0-3.12-2.08c-2.26,0-3.74,1.79-3.74,4.5s1.5,4.47,3.88,4.47a3.17,3.17,0,0,0,3.36-2.94Zm-17.09,3c.18-.74.21-.9.27-1.08s.12-.42.32-1l2.37-7.12,2.35,7.39a18.79,18.79,0,0,1,.5,1.82h.42c.07-.34.16-.7.25-1.05a10.94,10.94,0,0,1,.29-1.06l2.54-8.45a1.39,1.39,0,0,1,1.56-1.21v-.58a16.41,16.41,0,0,1-1.65.07,16.22,16.22,0,0,1-1.64-.07v.58c.88.05,1.14.18,1.14.6a3.29,3.29,0,0,1-.17.77l-1.85,6.36-2.8-8.63h-.4L120,191.4l-1.8-6.39a2.15,2.15,0,0,1-.15-.67c0-.39.26-.52,1.21-.61v-.58a21.79,21.79,0,0,1-2.36.13,22.15,22.15,0,0,1-2.38-.13v.58c.95.07,1.26.32,1.57,1.34l2.43,8.48c.13.45.27,1,.49,1.95Zm-16.68,0h.32l.47-.92a3.3,3.3,0,0,0,2.26.83,2.73,2.73,0,0,0,3-2.66,2,2,0,0,0-1-1.86,12,12,0,0,0-1.5-.81,11,11,0,0,1-1.3-.67,1.1,1.1,0,0,1-.6-1,1.5,1.5,0,0,1,1.63-1.34c1.1,0,1.68.65,1.86,2.11h.48v-2.92H108l-.4.87a3,3,0,0,0-2-.65c-1.68,0-2.87,1-2.87,2.4,0,1,.42,1.57,1.7,2.25.5.27.81.44.9.47l.8.42c.72.43.95.74.95,1.24a1.57,1.57,0,0,1-1.68,1.48c-1.21,0-2-.83-2.23-2.45h-.47ZM96,190.25c.09-2.17.66-3.27,1.68-3.27s1.48,1,1.57,3.27Zm4.51,2.27c-.24,1.45-1,2.28-2.28,2.28a2,2,0,0,1-2-1.54,7.79,7.79,0,0,1-.25-2.36h5.23a7.48,7.48,0,0,0-.38-2.33,3.2,3.2,0,0,0-3.12-2.08c-2.26,0-3.74,1.79-3.74,4.5s1.5,4.47,3.89,4.47a3.16,3.16,0,0,0,3.35-2.94ZM83.7,183.91c1.18,0,1.28.11,1.28,1.21v8.68c0,.89-.14,1-1.3,1v.45a19.2,19.2,0,0,1,2.13-.11,17.82,17.82,0,0,1,2.1.11v-.43c-.8,0-1-.22-1-1v-4.45a2.12,2.12,0,0,1,.29-1.31,1.6,1.6,0,0,1,1.34-.67,1.41,1.41,0,0,1,1.23.61,2.38,2.38,0,0,1,.23,1.32v4.5c0,.77-.18,1-1,1v.43a18.53,18.53,0,0,1,2.11-.11,18.75,18.75,0,0,1,2.13.11v-.45c-1.15,0-1.28-.16-1.28-1v-4.22c0-2-.94-3-2.71-3a2.75,2.75,0,0,0-2.33,1.1v-4.73a18.53,18.53,0,0,1-3.23.58Zm-1,2.44h-.34l-.53.94a2.55,2.55,0,0,0-2-.8c-2.24,0-3.79,1.86-3.79,4.55s1.5,4.42,3.72,4.42c1.75,0,2.81-1,3.09-3h-.74c-.2,1.48-.94,2.31-2,2.31-1.33,0-2-1.27-2-3.78s.72-4,2-4a1.94,1.94,0,0,1,1.7,1.14,4.24,4.24,0,0,1,.39,1.39h.49Zm-14.08,9.17H69l.47-.92a3.3,3.3,0,0,0,2.25.83,2.73,2.73,0,0,0,3-2.66,2,2,0,0,0-1-1.86,10.63,10.63,0,0,0-1.5-.81,11,11,0,0,1-1.3-.67,1.11,1.11,0,0,1-.59-1,1.5,1.5,0,0,1,1.62-1.34c1.1,0,1.68.65,1.86,2.11h.49v-2.92H74l-.4.87a3,3,0,0,0-2-.65c-1.68,0-2.87,1-2.87,2.4,0,1,.41,1.57,1.7,2.25.5.27.81.44.9.47l.79.42c.73.43,1,.74,1,1.24a1.57,1.57,0,0,1-1.68,1.48c-1.21,0-2-.83-2.24-2.45h-.47ZM65,182.94a1.17,1.17,0,0,0-1.14,1.22A1.2,1.2,0,0,0,65,185.41a1.16,1.16,0,0,0,1.15-1.25A1.17,1.17,0,0,0,65,182.94m1.06,3.46a19.3,19.3,0,0,1-3.23.56v.42c1.17,0,1.28.12,1.28,1.19v5.23c0,.89-.14,1-1.3,1v.45c1.09-.09,1.63-.11,2.28-.11s1.19,0,2.27.11v-.45c-1.15,0-1.3-.16-1.3-1Zm-4.19,7.71a2,2,0,0,1-1.21.49c-.74,0-1-.47-1-1.88l0-5.31h1.93v-.68H59.72l0-2.64h-.6c-.36,1.72-1.24,2.69-2.49,2.69v.63h1.1l-.11,5.17v.21a3,3,0,0,0,.35,1.72,2.1,2.1,0,0,0,1.89.9,3.27,3.27,0,0,0,2-.65Zm-8.73-2a4.64,4.64,0,0,1-.14,1.42,1.38,1.38,0,0,1-1.34,1c-.83,0-1.33-.64-1.33-1.66,0-1.38.77-2.05,2.81-2.44Zm3.09,2.61a1.74,1.74,0,0,1-.47.08c-.52,0-.67-.31-.67-1.36V190.1a4,4,0,0,0-.47-2.43A3.14,3.14,0,0,0,52,186.55c-1.72,0-3.13,1-3.13,2.2a.68.68,0,0,0,.74.76.79.79,0,0,0,.87-.89,1.32,1.32,0,0,0,0-.27,2.18,2.18,0,0,1,0-.38c0-.5.56-.88,1.32-.88a1.35,1.35,0,0,1,1.16.52,2,2,0,0,1,.23,1.17v1.16c-3.14.4-4.78,1.5-4.78,3.16a2.35,2.35,0,0,0,2.56,2.33,2.54,2.54,0,0,0,2.48-1.61c.12,1.12.61,1.57,1.64,1.57a4.34,4.34,0,0,0,1.19-.16Zm-14.3-4.47c.09-2.17.67-3.27,1.68-3.27s1.48,1,1.57,3.27Zm4.51,2.27c-.23,1.45-1,2.28-2.27,2.28a2,2,0,0,1-2-1.54,7.79,7.79,0,0,1-.25-2.36h5.24a8.12,8.12,0,0,0-.38-2.33,3.21,3.21,0,0,0-3.13-2.08c-2.25,0-3.73,1.79-3.73,4.5s1.49,4.47,3.88,4.47a3.17,3.17,0,0,0,3.36-2.94Zm-13.9,3h.32l.47-.92a3.3,3.3,0,0,0,2.26.83,2.73,2.73,0,0,0,3-2.66,2,2,0,0,0-1-1.86,10.94,10.94,0,0,0-1.49-.81,9.36,9.36,0,0,1-1.3-.67,1.1,1.1,0,0,1-.6-1,1.5,1.5,0,0,1,1.62-1.34c1.11,0,1.68.65,1.86,2.11h.49v-2.92h-.32l-.4.87a3,3,0,0,0-2-.65c-1.68,0-2.87,1-2.87,2.4,0,1,.42,1.57,1.7,2.25.5.27.81.44.9.47l.8.42c.72.43,1,.74,1,1.24a1.57,1.57,0,0,1-1.68,1.48c-1.21,0-2-.83-2.24-2.45h-.46Zm-10.89-8.11c1.27,0,1.3.06,1.3,1.23v5.16c0,.89-.14,1-1.3,1v.45a19.44,19.44,0,0,1,2.13-.11,18.36,18.36,0,0,1,2.12.11v-.43c-.82,0-1-.22-1-1v-4.45a1.94,1.94,0,0,1,.31-1.31,1.55,1.55,0,0,1,1.34-.67,1.35,1.35,0,0,1,1.21.61,2.53,2.53,0,0,1,.23,1.32v4.5c0,.77-.18,1-1,1v.43a18,18,0,0,1,2.09-.11,19.31,19.31,0,0,1,2.15.11v-.45c-1.15,0-1.3-.16-1.3-1v-4.22c0-2-.94-3-2.71-3A2.87,2.87,0,0,0,24.65,188a5.56,5.56,0,0,0-.27-1.54,14.94,14.94,0,0,1-2.73.53Zm-4.13,4.7a4.64,4.64,0,0,1-.14,1.42,1.37,1.37,0,0,1-1.34,1c-.83,0-1.33-.64-1.33-1.66,0-1.38.77-2.05,2.81-2.44Zm3.09,2.61a1.74,1.74,0,0,1-.47.08c-.52,0-.67-.31-.67-1.36V190.1a4,4,0,0,0-.47-2.43,3.14,3.14,0,0,0-2.61-1.12c-1.72,0-3.13,1-3.13,2.2a.68.68,0,0,0,.74.76.79.79,0,0,0,.87-.89,1.32,1.32,0,0,0,0-.27,2.88,2.88,0,0,1,0-.38c0-.5.56-.88,1.31-.88a1.35,1.35,0,0,1,1.16.52,2,2,0,0,1,.23,1.17v1.16c-3.14.4-4.78,1.5-4.78,3.16a2.35,2.35,0,0,0,2.56,2.33,2.54,2.54,0,0,0,2.48-1.61c.12,1.12.61,1.57,1.64,1.57a4.34,4.34,0,0,0,1.19-.16ZM3.67,188.66V185c0-1,.2-1.2,1.52-1.25v-.58c-1.14.09-1.73.13-2.57.13s-1.39,0-2.47-.13v.58c1.34.05,1.52.22,1.52,1.25v8.5c0,1.05-.16,1.17-1.52,1.24v.58c1.1-.09,1.68-.12,2.47-.12s1.4,0,2.57.12v-.58c-1.34-.07-1.52-.21-1.52-1.24v-4.19H8.24v4.19c0,1.05-.16,1.17-1.52,1.24v.58c1.18-.09,1.77-.12,2.57-.12s1.37,0,2.47.12v-.58c-1.35-.07-1.52-.19-1.52-1.24V185c0-1,.2-1.2,1.52-1.25v-.58c-1.07.09-1.64.13-2.47.13s-1.43,0-2.57-.13v.58c1.32.05,1.52.22,1.52,1.25v3.68Z" fill="#fff"/><path d="M196.09,54.57v-.3c0-30-22.74-54.27-54.42-54.27S87,24.57,87,54.57v.3c0,30,22.74,54.26,54.42,54.26s54.72-24.57,54.72-54.56" fill="#fff"/><path d="M188.29,54.57v-.26c0-25.71-19.49-46.51-46.64-46.51s-46.9,21.05-46.9,46.77v.26c0,25.71,19.49,46.51,46.64,46.51s46.9-21.06,46.9-46.77" fill="#830a24"/><path d="M168.33,62.66a19.55,19.55,0,0,0,.29-5.69c-.12-1.21-3.87-29.89-3.87-29.89H118.29S114.54,55.76,114.42,57a19,19,0,0,0,.35,6c.55-.27,1.18-.55,1.9-.83a17.85,17.85,0,0,1-.24-5.13c.11-1.13,3.58-27.68,3.58-27.68h43S166.5,55.84,166.61,57a17.86,17.86,0,0,1-.54,6.43l2.26-.74" fill="#fff"/><path d="M133.5,55.68c0-.87.07-2.39.07-3.18,0-2.24-1.86-3.57-2.58-4.14A3,3,0,0,1,130,46V41.28h-.28a.09.09,0,0,1-.09-.09.09.09,0,0,1,.09-.08h.6V39.25h-.6a.09.09,0,1,1,0-.18H130V39c0-.26,0-.55-.34-.55h-2.88c-.38,0-.35.29-.35.55v.11h.24a.09.09,0,0,1,0,.18h-.56v1.85h.56a.09.09,0,0,1,0,.18h-.24V46a3.62,3.62,0,0,1-.17,1.12,3.74,3.74,0,0,1,3.25.54,6.4,6.4,0,0,0-3.71.55l-.43.25c-.75.59-2.5,1.91-2.5,4.09,0,.79.06,2.31.07,3.18,0,.15,0,2.09,0,4.58A35.83,35.83,0,0,1,133.5,61v-5.3m13.3-5.09c0-.87.07-2.39.07-3.18,0-2.23-1.86-3.57-2.57-4.13a3,3,0,0,1-1-2.41V36.23h-.24a.09.09,0,1,1,0-.18h.56V34.21h-.55a.09.09,0,1,1,0-.18h.23v-.14c0-.26,0-.54-.34-.54h-2.88c-.38,0-.34.28-.34.54V34H140a.09.09,0,0,1,0,.18h-.59v1.85H140a.09.09,0,0,1,0,.18h-.27v4.63a3.65,3.65,0,0,1-.17,1.11,3.74,3.74,0,0,1,3.25.54,6.31,6.31,0,0,0-3.71.55,3.61,3.61,0,0,0-.41.24c-.74.59-2.53,1.91-2.53,4.1,0,.79.06,2.31.07,3.18,0,.17,0,6.06,0,11a52.09,52.09,0,0,1,6.42,2.24,29.27,29.27,0,0,0,4.16,1.42c0-5.77,0-14.51,0-14.71m13.3,5.09c0-.87.07-2.39.07-3.18,0-2.24-1.86-3.57-2.57-4.14a3,3,0,0,1-1-2.41V41.28h-.25a.09.09,0,0,1-.09-.09.09.09,0,0,1,.09-.08h.56V39.25h-.57a.09.09,0,0,1-.09-.08.09.09,0,0,1,.09-.09h.26V39c0-.26,0-.55-.35-.55h-2.88c-.37,0-.34.29-.34.55v.09h.26a.09.09,0,0,1,0,.18h-.58v1.86h.58a.09.09,0,0,1,0,.18H153V46a3.62,3.62,0,0,1-.17,1.12,3.73,3.73,0,0,1,3.31.53,6.35,6.35,0,0,0-3.71.54c-.21.12-.46.28-.71.45a5.14,5.14,0,0,0-2.29,3.91c0,.79.06,2.31.07,3.18V65.85a24.74,24.74,0,0,0,10.57-.64c0-4.58,0-9.38,0-9.53" fill="#fff"/><path d="M164.86,66.64v0c-9.56,3.13-12.22,3.79-26-1.27-9.56-3.52-17-2.33-21.54-.7h0c-.7.25-1.33.51-1.89.76,3.45,9.65,14.21,17,26,21.23,11.69-4.17,22.32-11.4,25.91-20.87l-2.57.84" fill="#fff"/><path d="M141.52,88.48" fill="#fff"/><path d="M141.52,88.48" fill="none" stroke="#1d1d1b" stroke-width="2.04"/></svg>