<svg id="Ebene_1" data-name="Ebene 1" xmlns="http://www.w3.org/2000/svg" viewBox="0 0 109.13 109.13"><path d="M109.13,54.57v-.3C109.13,24.27,86.4,0,54.71,0S0,24.57,0,54.57v.3c0,30,22.74,54.26,54.42,54.26s54.71-24.57,54.71-54.56" fill="#fff"/><path d="M101.34,54.57v-.26C101.34,28.6,81.85,7.8,54.69,7.8S7.8,28.85,7.8,54.57v.26c0,25.71,19.48,46.51,46.64,46.51s46.9-21.06,46.9-46.77" fill="#830a24"/><path d="M81.52,62.66A19.54,19.54,0,0,0,81.81,57c-.12-1.21-3.87-29.89-3.87-29.89H31.48S27.73,55.76,27.61,57A19.19,19.19,0,0,0,28,63c.55-.27,1.18-.55,1.9-.83A17.92,17.92,0,0,1,29.62,57c.11-1.13,3.58-27.68,3.58-27.68h43S79.69,55.84,79.8,57a17.65,17.65,0,0,1-.55,6.43l2.27-.74" fill="#fff"/><path d="M46.69,55.68c0-.87.07-2.39.07-3.18,0-2.24-1.86-3.57-2.58-4.14a3,3,0,0,1-1-2.41V41.28H42.9a.09.09,0,0,1-.09-.09h0a.09.09,0,0,1,.09-.08h.6V39.25h-.6a.09.09,0,0,1,0-.18h.28V39c0-.26,0-.55-.35-.55H40c-.38,0-.35.29-.35.55v.11h.24a.09.09,0,1,1,0,.18H39.3v1.85h.56a.09.09,0,0,1,0,.18h-.24V46a3.54,3.54,0,0,1-.17,1.12,3.76,3.76,0,0,1,3.25.54,6.44,6.44,0,0,0-3.72.55l-.42.25c-.75.59-2.51,1.91-2.51,4.09,0,.79.07,2.31.07,3.18v4.58A36.08,36.08,0,0,1,46.69,61V55.7M60,50.59c0-.87.07-2.39.07-3.18,0-2.23-1.86-3.57-2.58-4.13a3.06,3.06,0,0,1-1-2.41V36.23h-.24a.09.09,0,1,1,0-.18h.56V34.21h-.55a.09.09,0,0,1,0-.18h.23v-.14c0-.26,0-.54-.34-.54H53.27c-.38,0-.35.28-.35.54V34h.28a.09.09,0,1,1,0,.18h-.59V36h.59a.09.09,0,0,1,0,.18h-.28v4.63A3.54,3.54,0,0,1,52.76,42a3.76,3.76,0,0,1,3.25.54,6.25,6.25,0,0,0-3.71.55,4.49,4.49,0,0,0-.42.24c-.74.59-2.52,1.91-2.52,4.1,0,.79.06,2.31.07,3.18v11a53.59,53.59,0,0,1,6.42,2.24A29.14,29.14,0,0,0,60,65.3V50.59m13.3,5.09c0-.87.07-2.39.07-3.18,0-2.24-1.86-3.57-2.57-4.14a3,3,0,0,1-1-2.41V41.28h-.24a.09.09,0,0,1-.09-.09.09.09,0,0,1,.09-.08h.56V39.25h-.57a.09.09,0,0,1-.09-.08.09.09,0,0,1,.09-.09h.25V39c0-.26,0-.55-.34-.55H66.57c-.38,0-.34.29-.34.55v.09h.26a.09.09,0,0,1,0,.18h-.58v1.86h.58a.09.09,0,0,1,0,.18h-.26V46a3.54,3.54,0,0,1-.17,1.12,3.72,3.72,0,0,1,3.31.53,6.32,6.32,0,0,0-3.71.54c-.21.12-.46.28-.72.45a5.13,5.13,0,0,0-2.28,3.91c0,.79.06,2.31.07,3.18V65.9a24.88,24.88,0,0,0,10.58-.64V55.73" fill="#fff"/><path d="M78.05,66.64h0c-9.55,3.13-12.21,3.79-25.95-1.27-9.55-3.52-17-2.33-21.53-.7h0c-.7.25-1.33.51-1.89.76,3.45,9.65,14.21,17,26,21.23C66.4,82.5,77,75.27,80.61,65.8l-2.56.84" fill="#fff"/><path d="M98.88,88.48" fill="#fff"/><path d="M98.88,88.48" fill="none" stroke="#1d1d1b" stroke-width="2.04"/></svg>