<svg width="108" height="29" viewBox="0 0 108 29" xmlns="http://www.w3.org/2000/svg">
    <g fill="none" fill-rule="evenodd">
        <path d="M28.659 14.397v-.08C28.659 6.404 22.689 0 14.368 0 6.048 0 0 6.483 0 14.397v.08c0 7.914 5.97 14.318 14.29 14.318 8.321 0 14.369-6.483 14.369-14.398" fill="#FFFFFE"/>
        <path d="M26.723 14.45v-.069c0-6.808-5.16-12.317-12.352-12.317S1.952 7.641 1.952 14.45v.069c0 6.808 5.16 12.317 12.352 12.317 7.191 0 12.419-5.577 12.419-12.386" fill="#6A0D24"/>
        <path d="M21.46 16.325c.098-.467.129-.952.078-1.455-.031-.31-1.028-7.645-1.028-7.645H8.164s-.996 7.335-1.027 7.645a4.748 4.748 0 0 0 .092 1.525c.147-.07.315-.143.506-.215a4.412 4.412 0 0 1-.065-1.311c.029-.288.952-7.08.952-7.08h11.43s.924 6.792.953 7.08a4.417 4.417 0 0 1-.146 1.645l.601-.189" fill="#FFFFFE"/>
        <path d="M19.479 14.912c.002-.22.019-.602.019-.802 0-.562-.515-.898-.713-1.04-.082-.06-.274-.248-.274-.607v-1.176h-.069c-.014 0-.025-.01-.025-.022 0-.013.011-.023.025-.023h.157v-.466h-.159c-.014 0-.025-.01-.025-.022 0-.013.011-.023.025-.023h.07v-.025c0-.065.01-.136-.095-.136h-.795c-.105 0-.096.071-.096.136v.024h.073c.014 0 .025.01.025.023 0 .012-.011.022-.025.022h-.073v.001h-.088v.466h.161c.014 0 .025.01.025.022 0 .012-.011.023-.025.023h-.073v1.176c0 .11-.02.202-.047.28.593-.129.917.134.917.134s-.564-.092-1.028.137a2.768 2.768 0 0 0-.197.113c-.23.165-.632.486-.632.983 0 .2.017.582.02.802l-.002 2.56a7.496 7.496 0 0 0 2.924-.16v-2.4m-3.68-1.28c.002-.22.019-.603.019-.802 0-.562-.515-.899-.713-1.041-.082-.06-.274-.247-.274-.607v-1.167h-.067c-.014 0-.025-.01-.025-.023 0-.012.011-.022.025-.022h.145l.007.002h.003v-.466h-.153c-.014 0-.025-.01-.025-.022 0-.012.011-.022.025-.022h.065v-.037c0-.064.009-.136-.096-.136h-.795c-.106 0-.096.072-.096.136v.036h.077c.014 0 .025.01.025.023 0 .012-.011.022-.025.022h-.165v.466h.165c.014 0 .025.01.025.023 0 .012-.011.022-.025.022h-.077v1.165c0 .11-.019.2-.046.28.582-.122.9.136.9.136s-.565-.092-1.028.138a1.903 1.903 0 0 0-.114.062c-.205.147-.7.48-.7 1.032 0 .2.018.581.02.801l-.001 2.782c.56.14 1.151.324 1.776.564.394.152.777.268 1.149.356-.001-1.452-.002-3.654-.001-3.702m-3.68 1.28c.002-.22.019-.601.019-.8 0-.563-.515-.9-.713-1.042-.082-.059-.274-.247-.274-.606v-1.176h-.079c-.013 0-.024-.01-.024-.022 0-.013.01-.023.024-.023h.167v-.466H11.072c-.013 0-.024-.01-.024-.023s.01-.023.024-.023h.079v-.024c0-.065.009-.136-.096-.136h-.795c-.105 0-.096.071-.096.136v.029h.065c.014 0 .025.01.025.022 0 .012-.01.022-.025.022h-.148l-.005-.002v.465l.005-.002h.148c.014 0 .025.01.025.022 0 .013-.01.023-.025.023h-.065v1.178a.85.85 0 0 1-.047.281c.58-.12.899.137.899.137s-.565-.092-1.029.137c-.034.018-.075.04-.116.064-.208.149-.694.481-.694 1.028 0 .2.017.582.02.802l-.002 1.153c.821-.066 1.798-.035 2.925.18-.001-.707-.002-1.293-.001-1.333" fill="#FFFFFE"/>
        <path d="M20.9 17.444a.024.024 0 0 0-.002.003c-2.467.825-3.156.998-6.703-.332-2.468-.925-4.382-.614-5.562-.183v-.004c-.18.066-.343.134-.488.201.891 2.535 3.669 4.47 6.726 5.577 3.019-1.094 5.765-2.995 6.691-5.483l-.662.221" fill="#FFFFFE"/>
        <g fill="#000">
            <path d="M33.987 17.745h2.194v-4.023h4.047v4.023h2.194V7.725h-2.194v3.964H36.18V7.725h-2.194v10.02zm9.332 0h2.237l.912-2.247h4.218l.912 2.247h2.294L49.617 7.653h-2.023l-4.275 10.092zm3.933-4.194 1.325-3.25 1.325 3.25h-2.65zm8.82 4.266h1.909l2.251-6.557 2.25 6.557h1.91l3.406-10.092h-2.294l-2.066 6.785L61.2 7.696H59.32l-2.237 6.814-2.066-6.785h-2.35l3.405 10.092zm12.709-.072h7.594v-1.961H70.96V13.68h4.702v-1.961H70.96V9.685h5.343v-1.96H68.78v10.02zm13.165.143c2.151 0 3.662-1.116 3.662-3.106v-.029c0-1.746-1.14-2.476-3.163-3.006-1.725-.444-2.152-.659-2.152-1.317V10.4c0-.486.442-.873 1.283-.873.84 0 1.71.373 2.592.988l1.14-1.66c-1.011-.817-2.25-1.275-3.704-1.275-2.037 0-3.49 1.202-3.49 3.02v.03c0 1.99 1.296 2.548 3.305 3.063 1.667.43 2.009.716 2.009 1.274v.029c0 .586-.542.944-1.44.944-1.14 0-2.08-.472-2.977-1.217l-1.297 1.56a6.329 6.329 0 0 0 4.232 1.604zm5.5-.143h2.194v-3.063l1.154-1.203 3.092 4.266h2.636l-4.246-5.769 4.06-4.251h-2.65l-4.046 4.38v-4.38h-2.194v10.02zm14.255.172c3.078 0 5.314-2.334 5.314-5.182v-.029c0-2.849-2.208-5.153-5.285-5.153-3.078 0-5.315 2.333-5.315 5.182v.028c0 2.849 2.208 5.154 5.286 5.154zm.029-2.033c-1.768 0-3.021-1.431-3.021-3.149v-.029c0-1.718 1.225-3.12 2.992-3.12s3.02 1.431 3.02 3.149v.028c0 1.718-1.225 3.12-2.991 3.12zM34.934 22.123v-.954c0-.267.052-.31.392-.323v-.15a7.577 7.577 0 0 1-.662.033c-.214 0-.358-.01-.638-.033v.15c.345.013.391.056.391.323v2.204c0 .271-.041.304-.39.323v.15c.283-.024.432-.033.637-.033.205 0 .359.009.662.032v-.15c-.345-.018-.392-.056-.392-.322v-1.086h1.179v1.086c0 .271-.042.304-.391.323v.15c.303-.024.456-.033.661-.033.205 0 .354.009.638.032v-.15c-.35-.018-.391-.05-.391-.322v-2.204c0-.267.051-.31.391-.323v-.15a6.791 6.791 0 0 1-.638.033c-.214 0-.368-.01-.661-.033v.15c.34.013.391.056.391.323v.954h-1.179zm4.37 1.573a.502.502 0 0 1-.12.018c-.135 0-.172-.08-.172-.35v-.866c0-.342-.033-.506-.121-.632-.136-.183-.378-.29-.676-.29-.442 0-.806.257-.806.57 0 .127.066.197.191.197.145 0 .224-.08.224-.23 0-.018 0-.046-.005-.07-.01-.07-.01-.08-.01-.098 0-.13.145-.229.34-.229.131 0 .238.047.3.136.04.06.06.145.06.304v.3c-.811.102-1.235.388-1.235.818 0 .356.27.604.662.604.298 0 .484-.122.638-.416.032.29.158.407.424.407.102 0 .167-.01.307-.042v-.131zm-.795-.679c0 .173-.01.286-.038.37-.056.163-.182.257-.344.257-.215 0-.345-.164-.345-.43 0-.356.2-.53.727-.632v.435zm1.065-1.217c.326 0 .335.014.335.318v1.339c0 .23-.037.257-.335.272v.116c.242-.023.368-.028.55-.028.186 0 .317.005.545.028v-.112c-.21-.01-.256-.056-.256-.257v-1.151c0-.179.018-.263.079-.342a.401.401 0 0 1 .345-.173c.14 0 .251.056.312.159.041.07.06.164.06.341v1.166c0 .201-.046.248-.256.257v.112c.224-.023.359-.028.54-.028.191 0 .312.005.555.028v-.116c-.298-.015-.336-.042-.336-.272v-1.095c0-.515-.242-.786-.698-.786-.29 0-.494.117-.666.379a1.535 1.535 0 0 0-.07-.398 3.813 3.813 0 0 1-.704.136v.107zm2.807 2.102h.084l.121-.24c.191.155.354.216.583.216.451 0 .773-.285.773-.688 0-.215-.075-.35-.266-.482a2.845 2.845 0 0 0-.386-.21c-.26-.127-.26-.131-.335-.173-.103-.066-.154-.15-.154-.248 0-.192.186-.347.419-.347.284 0 .433.169.48.548h.126v-.758h-.084l-.103.224a.773.773 0 0 0-.507-.168c-.434 0-.741.257-.741.622 0 .267.107.407.438.585.13.07.21.112.233.122.172.089.172.089.204.108.187.112.247.191.247.322 0 .215-.19.384-.433.384-.312 0-.508-.215-.577-.636h-.122v.819zm3.589-.777c-.06.374-.27.59-.587.59-.266 0-.433-.132-.517-.398-.047-.15-.066-.323-.066-.613h1.351a2.028 2.028 0 0 0-.097-.604.827.827 0 0 0-.806-.539c-.583 0-.964.464-.964 1.166 0 .716.386 1.16 1 1.16.48 0 .793-.275.867-.762h-.181zm-1.165-.59c.024-.562.172-.847.433-.847.266 0 .382.248.406.847h-.839zm3.69 1.16a.504.504 0 0 1-.121.02c-.135 0-.172-.08-.172-.351v-.866c0-.342-.033-.506-.121-.632-.135-.183-.378-.29-.676-.29-.442 0-.806.257-.806.57 0 .127.066.197.191.197.145 0 .224-.08.224-.23 0-.018 0-.046-.005-.07-.01-.07-.01-.08-.01-.098 0-.13.145-.229.341-.229.13 0 .238.047.298.136.042.06.06.145.06.304v.3c-.81.102-1.234.388-1.234.818 0 .356.27.604.662.604.298 0 .484-.122.638-.416.032.29.158.407.424.407.102 0 .167-.01.307-.042v-.131zm-.796-.678c0 .173-.01.286-.037.37-.056.163-.182.257-.345.257-.215 0-.345-.164-.345-.43 0-.356.2-.53.727-.632v.435zm2.251.52c-.153.102-.214.126-.312.126-.19 0-.251-.122-.247-.487l.005-1.376h.498v-.177h-.498l.01-.684h-.154c-.093.445-.322.698-.643.698v.163h.284l-.028 1.339v.056c0 .215.023.342.088.444.094.15.266.234.49.234.181 0 .293-.037.507-.168v-.168zm1.082-1.999c-.265.07-.554.122-.834.145v.108c.303.004.331.033.331.309v1.357c0 .23-.037.257-.335.272v.116a6.25 6.25 0 0 1 1.174 0v-.116c-.299-.015-.336-.042-.336-.272v-1.919zm-.275-.898c-.167 0-.293.14-.293.318s.13.323.293.323c.173 0 .298-.136.298-.323 0-.178-.13-.318-.298-.318zm.949 3.262h.084l.12-.24a.843.843 0 0 0 .583.216c.452 0 .773-.285.773-.688 0-.215-.074-.35-.265-.482a2.889 2.889 0 0 0-.387-.21c-.26-.127-.26-.131-.335-.173-.103-.066-.154-.15-.154-.248 0-.192.186-.347.42-.347.283 0 .432.169.479.548h.125v-.758h-.083l-.103.224a.773.773 0 0 0-.507-.168c-.434 0-.74.257-.74.622 0 .267.106.407.437.585.13.07.21.112.233.122.172.089.172.089.205.108.186.112.247.191.247.322 0 .215-.191.384-.434.384-.312 0-.507-.215-.577-.636h-.121v.819zm3.632-2.378h-.089l-.134.243a.664.664 0 0 0-.518-.206c-.577 0-.978.483-.978 1.18 0 .683.387 1.146.96 1.146.452 0 .726-.266.796-.772h-.19c-.052.384-.243.6-.523.6-.344 0-.517-.328-.517-.979 0-.674.187-1.034.527-1.034.182 0 .35.112.438.295.051.103.074.182.102.36h.126v-.833zm.245-.632c.303.005.331.029.331.314v2.25c0 .23-.037.258-.335.273v.116c.242-.023.363-.028.55-.028.186 0 .316.005.54.028v-.112c-.205-.01-.252-.056-.252-.257v-1.151c0-.174.02-.263.075-.342a.413.413 0 0 1 .345-.173c.14 0 .251.056.316.159.047.075.06.164.06.341v1.166c0 .201-.046.248-.26.257v.112c.228-.023.363-.028.545-.028.191 0 .312.005.55.028v-.116c-.299-.015-.331-.042-.331-.272v-1.095c0-.515-.242-.786-.699-.786a.709.709 0 0 0-.6.285v-1.226c-.238.07-.588.13-.835.15v.107zm4.324 2.233c-.06.374-.27.59-.587.59-.265 0-.433-.132-.517-.398-.047-.15-.065-.323-.065-.613h1.35a2.028 2.028 0 0 0-.097-.604.826.826 0 0 0-.806-.539c-.582 0-.964.464-.964 1.166 0 .716.386 1.16 1.001 1.16.48 0 .792-.275.867-.762h-.182zm-1.165-.59c.024-.562.173-.847.434-.847.265 0 .382.248.405.847h-.839zm1.755 1.367h.084l.121-.24c.19.155.354.216.582.216.452 0 .774-.285.774-.688 0-.215-.075-.35-.266-.482a2.862 2.862 0 0 0-.387-.21c-.26-.127-.26-.131-.335-.173-.102-.066-.153-.15-.153-.248 0-.192.186-.347.419-.347.284 0 .433.169.48.548h.125v-.758h-.084l-.102.224a.773.773 0 0 0-.508-.168c-.433 0-.74.257-.74.622 0 .267.106.407.437.585.13.07.21.112.233.122.172.089.172.089.205.108.187.112.247.191.247.322 0 .215-.191.384-.433.384-.312 0-.508-.215-.578-.636h-.121v.819zm4.304-.005c.047-.192.056-.234.07-.281.023-.084.032-.108.084-.262l.61-1.844.605 1.914c.066.197.098.328.13.473h.108c.019-.089.042-.183.065-.272.014-.07.038-.145.075-.276l.657-2.19c.07-.234.153-.3.4-.313v-.15a4.783 4.783 0 0 1-.848 0v.15c.229.013.294.046.294.154a.847.847 0 0 1-.042.201l-.48 1.648-.722-2.237h-.102l-.75 2.223-.466-1.657a.576.576 0 0 1-.037-.173c0-.103.065-.136.312-.16v-.149a5.71 5.71 0 0 1-1.225 0v.15c.246.018.326.084.405.346l.629 2.2c.032.116.07.27.125.505h.103zm4.411-.772c-.06.374-.27.59-.587.59-.265 0-.433-.132-.517-.398-.046-.15-.065-.323-.065-.613h1.35a2.028 2.028 0 0 0-.097-.604.826.826 0 0 0-.806-.539c-.582 0-.964.464-.964 1.166 0 .716.387 1.16 1.001 1.16.48 0 .793-.275.867-.762h-.182zm-1.164-.59c.023-.562.172-.847.433-.847.265 0 .382.248.405.847h-.838zm2.404-.997c-.266.07-.554.122-.834.145v.108c.303.004.331.033.331.309v1.357c0 .23-.037.257-.336.272v.116a6.259 6.259 0 0 1 1.174 0v-.116c-.298-.015-.335-.042-.335-.272v-1.919zm-.275-.898c-.168 0-.293.14-.293.318s.13.323.293.323c.173 0 .298-.136.298-.323 0-.178-.13-.318-.298-.318zm.88 1.16c.326 0 .335.014.335.318v1.339c0 .23-.037.257-.336.272v.116c.243-.023.369-.028.55-.028.187 0 .317.005.545.028v-.112c-.21-.01-.256-.056-.256-.257v-1.151c0-.179.019-.263.08-.342a.401.401 0 0 1 .344-.173c.14 0 .251.056.312.159.042.07.06.164.06.341v1.166c0 .201-.046.248-.255.257v.112c.223-.023.358-.028.54-.028.19 0 .312.005.554.028v-.116c-.298-.015-.335-.042-.335-.272v-1.095c0-.515-.243-.786-.7-.786-.288 0-.493.117-.665.379a1.524 1.524 0 0 0-.07-.398 3.805 3.805 0 0 1-.704.136v.107zm3.796-.01c.303 0 .33.029.33.31v.997c0 .238.038.383.126.505.126.173.331.267.583.267.307 0 .503-.117.656-.398a3.5 3.5 0 0 0 .047.426c.196-.07.443-.117.731-.145v-.113l-.055-.004c-.257-.01-.29-.033-.29-.225v-1.872a4.46 4.46 0 0 1-.833.145v.108c.303 0 .33.028.33.309v.992c0 .365-.14.547-.423.547a.34.34 0 0 1-.299-.144c-.05-.08-.07-.173-.07-.37v-1.587c-.246.07-.563.127-.833.145v.108zm2.747.01c.326 0 .335.014.335.318v1.339c0 .23-.036.257-.335.272v.116c.242-.023.368-.028.55-.028.186 0 .317.005.545.028v-.112c-.21-.01-.257-.056-.257-.257v-1.151c0-.179.02-.263.08-.342a.4.4 0 0 1 .344-.173c.14 0 .252.056.312.159.042.07.061.164.061.341v1.166c0 .201-.047.248-.256.257v.112c.224-.023.358-.028.54-.028.191 0 .312.005.554.028v-.116c-.298-.015-.335-.042-.335-.272v-1.095c0-.515-.242-.786-.699-.786-.288 0-.494.117-.666.379a1.524 1.524 0 0 0-.07-.398 3.81 3.81 0 0 1-.703.136v.107zm4.93 1.844c-.313 0-.35-.037-.35-.309v-2.7c-.247.075-.564.13-.834.15v.107c.303 0 .33.029.33.314v.683c-.18-.215-.297-.276-.53-.276-.517 0-.9.482-.9 1.147 0 .674.392 1.156.932 1.156.257 0 .424-.103.564-.347.01.089.019.127.023.16.01.032.014.046.047.168.28-.089.372-.108.717-.145v-.108zm-1.319-1.9c.321 0 .47.333.47 1.03 0 .683-.149 1.01-.456 1.01-.312 0-.461-.341-.461-1.038 0-.688.14-1.002.447-1.002zm2.79 1.095v1.081h.093l.182-.332c.256.206.49.29.796.29.569 0 .965-.379.965-.922 0-.327-.126-.538-.438-.74-.112-.07-.303-.177-.61-.341-.387-.206-.476-.304-.476-.524 0-.3.234-.524.555-.524.368 0 .6.243.694.734h.14v-.926h-.093l-.15.286a.86.86 0 0 0-.657-.258c-.563 0-.95.332-.95.819 0 .22.075.403.22.548.107.107.255.2.637.407.289.154.34.187.438.262a.555.555 0 0 1 .229.444c0 .319-.266.562-.615.562a.765.765 0 0 1-.648-.356c-.093-.15-.135-.276-.172-.51H84zm4.085.286c-.06.374-.27.59-.587.59-.266 0-.433-.132-.517-.398-.047-.15-.066-.323-.066-.613h1.351a2.036 2.036 0 0 0-.098-.604.826.826 0 0 0-.805-.539c-.583 0-.965.464-.965 1.166 0 .716.387 1.16 1.002 1.16.48 0 .792-.275.866-.762h-.181zm-1.165-.59c.023-.562.172-.847.433-.847.266 0 .382.248.405.847h-.838zm2.366.201v-2.101c-.252.07-.522.121-.825.15v.107c.303.005.33.029.33.314v2.25c0 .23-.036.258-.335.273v.116c.256-.023.396-.028.573-.028.182 0 .322.005.582.028v-.116c-.298-.015-.335-.042-.335-.272v-.444l.299-.319.633 1.151c.158-.009.242-.014.349-.014.102 0 .196.005.377.014v-.116c-.214-.015-.284-.061-.428-.3l-.62-1.025.391-.43c.173-.183.261-.225.504-.249v-.117a6.239 6.239 0 0 1-.54.024 4.51 4.51 0 0 1-.485-.024v.117c.205.014.275.042.275.117 0 .043-.037.108-.102.178l-.643.716zm3.156.8c-.154.103-.214.127-.312.127-.19 0-.252-.122-.247-.487l.005-1.376h.498v-.177h-.498l.009-.684h-.153c-.094.445-.322.698-.643.698v.163h.284l-.028 1.339v.056c0 .215.023.342.088.444.094.15.266.234.49.234.181 0 .293-.037.507-.168v-.168zm2.254-1.296V21.17c0-.267.047-.31.387-.323v-.15a6.317 6.317 0 0 1-1.29 0v.15c.34.013.391.056.391.323v2.204c0 .266-.046.309-.391.323v.15c.275-.024.424-.033.662-.033.237 0 .372.009.605.032v-.15c-.317-.023-.368-.065-.368-.322v-.917l.242-.253.708 1.207c.065.108.07.117.07.16 0 .088-.051.107-.307.126v.15a6.088 6.088 0 0 1 1.336 0v-.15c-.26-.01-.358-.075-.526-.337l-.95-1.507.685-.744c.176-.187.307-.249.568-.262v-.15a7.165 7.165 0 0 1-1.002 0v.15c.243.013.294.033.294.107 0 .038-.019.075-.075.136l-1.039 1.151zm3.146-.679c-.573 0-.992.497-.992 1.17 0 .675.41 1.156.973 1.156.554 0 .978-.5.978-1.155 0-.698-.387-1.17-.96-1.17zm-.01.127c.312 0 .452.328.452 1.058 0 .688-.15 1.015-.456 1.015-.312 0-.457-.327-.457-1.03 0-.687.159-1.043.461-1.043zm1.17.112c.326 0 .336.014.336.318v1.339c0 .23-.037.257-.336.272v.116a4.95 4.95 0 0 1 .55-.028c.186 0 .317.005.545.028v-.112c-.21-.01-.256-.056-.256-.257v-1.151c0-.179.019-.263.079-.342a.401.401 0 0 1 .345-.173c.14 0 .251.056.312.159.042.07.06.164.06.341v1.166c0 .201-.046.248-.256.257v.112c.224-.023.359-.028.54-.028.191 0 .312.005.555.028v-.116c-.298-.015-.336-.042-.336-.272v-1.095c0-.515-.242-.786-.698-.786-.289 0-.494.117-.666.379a1.535 1.535 0 0 0-.07-.398 3.81 3.81 0 0 1-.704.136v.107zm3.908 1.737c-.154.102-.214.126-.312.126-.191 0-.252-.122-.247-.487l.005-1.376h.498v-.177h-.498l.01-.684h-.155c-.093.445-.321.698-.643.698v.163h.284l-.027 1.339v.056c0 .215.023.342.088.444.093.15.266.234.489.234.182 0 .294-.037.508-.168v-.168zm1.153-1.976c-.573 0-.992.497-.992 1.17 0 .675.41 1.156.974 1.156.554 0 .978-.5.978-1.155 0-.698-.387-1.17-.96-1.17zm-.01.127c.313 0 .453.328.453 1.058 0 .688-.15 1.015-.457 1.015-.312 0-.456-.327-.456-1.03 0-.687.158-1.043.46-1.043zm1.171.089c.326 0 .335.01.335.323v1.357c0 .23-.037.257-.335.272v.116a6.119 6.119 0 0 1 1.174 0v-.116c-.298-.015-.336-.042-.336-.272v-1.044c0-.173.019-.304.06-.397.066-.15.187-.244.308-.244.08 0 .13.047.13.113 0 .028-.004.05-.013.103-.005.028-.01.05-.01.065 0 .098.089.164.215.164.14 0 .223-.09.223-.24 0-.242-.181-.42-.433-.42-.238 0-.424.14-.563.416a2.263 2.263 0 0 0-.061-.416c-.205.06-.4.089-.694.112v.108z"/>
        </g>
    </g>
</svg>
