<svg width="187" height="180" xmlns="http://www.w3.org/2000/svg">
    <path d="M.133 33.097A6379.687 6379.687 0 0 1 3.9 17.069c.89-3.88 2.407-10.32 3.03-12.934C7.826.293 12.466-.412 15.01.19c2.546.604 74.644 17.757 84.602 20.126 9.964 2.384 15.351 17.653 22.348 19.318 6.994 1.668 38.586 9.178 38.586 9.178l-.591 2.53c2.665 1.617 9.38 5.94 13.177 10.79 3.099 3.967 2.197 12.489 1.165 18.042 3.141-.228 5.543-.458 5.543-.458s11.73 29.41 5.162 40.286c-6.569 10.866-18.513 17.964-18.513 24.769v21.219c0 7.264 13.177 11.687 18.792 13.275 1.205.368.854.736 0 .736h-40.714c-.853 0-1.207-.368 0-.736 5.618-1.588 18.165-6.011 18.165-13.275 0-.144.01-.294.017-.438h.022v-20.776c0-6.805-11.95-13.897-18.512-24.774-6.574-10.877 5.158-40.286 5.158-40.286s4.646.445 9.49.713c.375-4.308 1.02-9.548 1.667-13.5 1.027-6.192-1.372-7.699-2.38-8.058l-.821 3.52s-31.592-7.515-38.592-9.186c-6.99-1.663-18.59 9.57-28.548 7.2-9.972-2.366-82.065-19.536-84.61-20.137-2.551-.61-6.386-3.33-5.49-7.17zm171.68 95.415c1.942-1.839 4.094-4.099 6.072-6.82.936-1.395 1.958-2.825 2.674-4.502.397-.778.7-1.752.984-2.716.173-.98.38-1.527.355-2.72 0-3.587-.47-6.988-1.099-10.159a80.978 80.978 0 0 0-2.056-8.549c-1.453-4.946-2.787-8.14-2.787-8.14s.321 3.415.91 8.475c.297 2.519.652 5.459 1.026 8.6.345 3.126.725 6.487.663 9.692.105.507-.132 1.648-.253 2.323-.216.664-.374 1.333-.729 2.058-.592 1.441-1.376 2.854-2.185 4.186-1.645 2.669-3.46 5.079-5.028 7.126-3.173 4.098-5.46 6.785-5.46 6.785s3.003-1.99 6.914-5.639zM11.257 35.561c2.851.918 6.899 2.396 11.816 3.883 9.815 3.056 23.005 6.708 36.275 9.96 6.648 1.558 13.306 3.133 19.573 4.439 3.145.631 6.176 1.238 9.056 1.851 1.314.362 3.237.29 4.741.344 1.477-.231 2.877-.563 4.186-.88a617.47 617.47 0 0 0 3.585-1.332c1.083-.536 2.095-1.04 3.067-1.517 1.872-1.013 3.479-1.937 4.753-2.766 2.567-1.632 3.892-2.755 3.892-2.755s-1.572.747-4.335 1.87c-1.371.586-3.073 1.22-5.029 1.892-1.948.66-4.18 1.2-6.58 1.726-1.19.13-2.45.25-3.686.311-1.23-.284-2.222-.115-3.728-.648-2.833-.8-5.817-1.644-8.898-2.523-6.18-1.724-12.81-3.38-19.44-5.058-13.289-3.21-26.662-6.03-36.77-7.796-5.038-.938-9.298-1.492-12.26-1.978a123.731 123.731 0 0 0-4.674-.622s1.603.622 4.456 1.599z" fill="#FFF" fill-rule="nonzero" opacity=".629"/>
</svg>
